<svg id="Layer_1" data-name="Layer 1" xmlns="http://www.w3.org/2000/svg" viewBox="0 0 1005 1005"><defs><style>.cls-1{fill:#4d4d4d;}</style></defs><path class="cls-1" d="M1002.5,1002.5H-2.5V-2.5h1005Zm-1000-5h995V2.5H2.5Z" transform="translate(2.5 2.5)"/><rect class="cls-1" x="2.5" y="909.09" width="1000" height="5"/><rect class="cls-1" x="2.5" y="818.18" width="1000" height="5"/><rect class="cls-1" x="2.5" y="727.27" width="1000" height="5"/><rect class="cls-1" x="2.5" y="636.36" width="1000" height="5"/><rect class="cls-1" x="2.5" y="545.45" width="1000" height="5"/><rect class="cls-1" x="2.5" y="454.55" width="1000" height="5"/><rect class="cls-1" x="2.5" y="363.64" width="1000" height="5"/><rect class="cls-1" x="2.5" y="272.73" width="1000" height="5"/><rect class="cls-1" x="2.5" y="181.82" width="1000" height="5"/><rect class="cls-1" x="2.5" y="90.91" width="1000" height="5"/><rect class="cls-1" x="909.09" y="2.5" width="5" height="1000"/><rect class="cls-1" x="818.18" y="2.5" width="5" height="1000"/><rect class="cls-1" x="727.27" y="2.5" width="5" height="1000"/><rect class="cls-1" x="636.36" y="2.5" width="5" height="1000"/><rect class="cls-1" x="545.45" y="2.5" width="5" height="1000"/><rect class="cls-1" x="454.55" y="2.5" width="5" height="1000"/><rect class="cls-1" x="363.64" y="2.5" width="5" height="1000"/><rect class="cls-1" x="272.73" y="2.5" width="5" height="1000"/><rect class="cls-1" x="181.82" y="2.5" width="5" height="1000"/><rect class="cls-1" x="90.91" y="2.5" width="5" height="1000"/></svg>